<?xml version="1.0" encoding="UTF-8" standalone="no"?><!DOCTYPE svg PUBLIC "-//W3C//DTD SVG 1.1//EN" "http://www.w3.org/Graphics/SVG/1.1/DTD/svg11.dtd"><svg width="100%" height="100%" viewBox="0 0 1024 1024" version="1.1" xmlns="http://www.w3.org/2000/svg" xmlns:xlink="http://www.w3.org/1999/xlink" xml:space="preserve" xmlns:serif="http://www.serif.com/" style="fill-rule:evenodd;clip-rule:evenodd;stroke-linejoin:round;stroke-miterlimit:2;"><path d="M976,201.369l0,621.262c0,84.647 -68.722,153.369 -153.369,153.369l-621.262,-0c-84.647,-0 -153.369,-68.722 -153.369,-153.369l0,-621.262c0,-84.647 68.722,-153.369 153.369,-153.369l621.262,-0c84.647,-0 153.369,68.722 153.369,153.369Z" style="fill:url(#_Linear1);stroke:#565659;stroke-width:15px;"/><g><path id="S" d="M156.581,801.055c-23.765,-10.513 -38.472,-25.03 -38.472,-41.064c-0,-32.082 58.807,-58.088 131.276,-58.088c72.504,0 131.311,26.006 131.311,58.088l-76.901,-0c0,-13.288 -24.373,-24.057 -54.41,-24.057c-30.03,-0 -54.368,10.769 -54.368,24.057c-0,6.637 6.093,12.651 15.896,16.991l0.035,0c9.846,4.372 18.044,5.637 38.437,7.069c36.273,1.669 69.081,6.507 92.839,17.02c23.765,10.515 38.472,25.032 38.472,41.067c-0,32.082 -58.807,58.103 -131.311,58.103c-72.469,0 -131.276,-26.021 -131.276,-58.103l76.908,-0c-0,13.288 24.338,24.073 54.368,24.073c30.037,-0 54.41,-10.785 54.41,-24.073c0,-6.638 -6.093,-12.635 -15.903,-16.992l-0.036,0c-9.845,-4.356 -23.972,-5.858 -38.471,-7.052l-0,-0.016c-35.157,-2.386 -69.047,-6.508 -92.804,-17.023Z" style="fill:#fff;fill-rule:nonzero;"/><path id="V" d="M643.261,701.903l-92.868,198.338l-76.901,0l-92.796,-198.338l76.901,0l54.417,116.159l54.346,-116.159l76.901,0Z" style="fill:#fff;fill-rule:nonzero;"/><path id="G" d="M774.58,784.051l131.275,-0l0,58.087l0.036,-0c0,32.085 -58.807,58.106 -131.311,58.106c-72.512,0 -131.276,-26.021 -131.276,-58.106l0,-82.144l-0.036,-0c0,-32.082 58.8,-58.088 131.312,-58.088c72.468,0 131.275,26.006 131.275,58.088l-76.908,-0c0,-13.275 -24.373,-24.06 -54.367,-24.06c-30.037,-0 -54.375,10.785 -54.375,24.06l-0,82.144c-0,13.291 24.338,24.06 54.375,24.06c29.994,-0 54.331,-10.769 54.367,-24.044l0,-24.057l-54.367,-0l-0,-34.046Z" style="fill:#fff;fill-rule:nonzero;"/></g><clipPath id="_clip2"><rect x="163.75" y="139" width="696.5" height="488.761"/></clipPath><g clip-path="url(#_clip2)"><path d="M469.903,139.443c46.834,-3.474 101.087,13.766 137.485,42.576c4.164,3.297 10.607,8.768 15.291,10.655l0.542,0.213c-4.114,-19.258 -20.466,-32.111 -35.71,-43.009l0.502,-0.106c20.301,-4.205 50.655,-5.522 70.597,0.505c24.262,7.333 44.779,27.559 57.257,49.077c7.555,13.035 12.01,29.066 22.443,40.24c21.864,21.195 52.119,32.949 77.256,49.843c21.084,14.168 37.107,26.738 42.173,53.14c3.693,19.257 2.901,40.176 -8.248,57.177c-22.859,32.934 -81.48,49.941 -118.909,57.99c-78.549,16.891 -157.419,-0.169 -224.201,-44.433c6.55,-4.587 13.837,-9.095 20.076,-14.004c-9.534,-4.5 -20.307,-5.669 -30.584,-3.318c-24.587,5.834 -35.809,31.615 -30.186,54.998c6.483,-4.368 15.523,-14.502 21.142,-20.408c4.326,3.776 9.967,7.364 14.69,10.695c15.456,10.906 30.518,19.683 47.685,27.583c68.877,31.701 142.322,33.416 214.313,12.714c14.409,-4.14 26.817,-9.281 40.77,-14.44c-3.801,25.828 -31.639,46.764 -53.278,57.797c-10.126,5.213 -22.591,10.656 -33.406,14.038c-17.292,5.395 -34.95,9.539 -52.837,12.401c-57.928,9.128 -137.071,7.422 -193.003,-10.046c-12.413,-3.911 -24.451,-8.926 -35.971,-14.982c-35.252,-18.162 -62.11,-49.323 -74.876,-86.872c-1.846,-5.276 -3.378,-10.328 -4.742,-15.731c-1.146,-4.532 -2.032,-9.986 -3.422,-14.349l-0.149,-0.46c-5.807,29.329 -4.973,53.035 6.908,81.139c14.698,34.767 45.993,62.466 79.038,79.396c6.724,3.447 13.765,6.167 20.833,8.934c-5.087,17.329 -7.11,31.12 -8.479,48.852l-287.149,0.012c-0.176,-40.923 4.867,-82.25 10.789,-122.692c23.023,-157.231 112.035,-355.277 295.36,-365.125Zm38.063,65.373c-25.353,2.564 -44.998,11.127 -61.768,31.125c-8.375,9.987 -14.362,21.59 -15.498,34.747c18.138,-15.626 36.44,-28.641 61.346,-29.282c-11.148,15.327 -16.365,32.529 -13.408,51.585c2.39,16.096 11.139,30.578 24.275,40.179c13.82,9.975 26.54,11.753 42.841,11.282c26.439,-3.082 45.489,-17.869 54.494,-43.003c13.625,7.705 37.723,21.27 51.625,7.532c-45.62,-29.232 -40.281,-77.301 -102.764,-98.536c-12.534,-4.258 -27.878,-7.161 -41.143,-5.629Z" style="fill:#4cfe06;"/><path d="M540.181,244.477c10.646,-0.335 15.764,18.809 17.37,26.771c3.031,15.027 0.649,48.528 -14.811,55.676c-6.126,0.545 -9.867,-6.054 -12.01,-10.909c-7.733,-17.527 -8.646,-38.948 -2.026,-56.957c2.247,-6.106 5.394,-11.837 11.477,-14.581" style="fill:#4cfe06;fill-rule:nonzero;"/></g><defs><linearGradient id="_Linear1" x1="0" y1="0" x2="1" y2="0" gradientUnits="userSpaceOnUse" gradientTransform="matrix(5.68236e-14,928,-928,5.68236e-14,0,48)"><stop offset="0" style="stop-color:#3c3c40;stop-opacity:1"/><stop offset="1" style="stop-color:#1f1f22;stop-opacity:1"/></linearGradient></defs></svg>